<svg width="526" height="652" viewBox="0 0 526 652" fill="none" xmlns="http://www.w3.org/2000/svg">
<path d="M263.653 0.0266113C183.013 0.0266113 117.307 65.7346 117.307 146.373C117.307 227.012 183.015 292.72 263.653 292.72C344.293 292.715 410 227.012 410 146.373C410 65.7346 344.292 0.0266113 263.653 0.0266113Z" fill="white"/>
<path d="M398.8 345.733H128.507C59.0693 345.733 0.823975 401.733 0.823975 472.665V590.639H138.957C133.728 576.451 129.999 560.775 129.999 545.092C129.999 474.16 189.734 415.92 262.906 415.92C336.078 415.92 395.812 473.415 395.812 545.092C395.812 561.519 392.828 576.452 386.854 590.639H524.987L524.982 472.665C526.477 401.733 469.732 345.733 398.8 345.733Z" fill="white"/>
<path d="M248.72 502.533H278.584V512.242H248.72V502.533Z" fill="white"/>
<path d="M263.653 439.813C205.413 439.813 157.627 486.855 157.627 545.84C157.627 604.08 204.668 651.867 263.653 651.867C322.639 651.867 369.68 604.825 369.68 545.84C369.685 486.856 321.899 439.813 263.653 439.813ZM324.883 590.64C324.883 594.374 321.898 597.359 318.164 597.359H209.148C205.414 597.359 202.429 594.374 202.429 590.64V518.957C202.429 515.223 205.414 512.238 209.148 512.238H239.763V498.05C239.763 495.811 242.002 493.571 244.242 493.571H283.07C285.309 493.571 287.549 495.811 287.549 498.05V512.238H318.164C321.898 512.238 324.882 515.223 324.882 518.957L324.883 590.64Z" fill="white"/>
</svg>
