<svg width="467" height="711" viewBox="0 0 467 711" fill="none" xmlns="http://www.w3.org/2000/svg">
<path d="M410.585 568.96C394.902 577.918 376.235 583.892 356.825 583.892C337.413 583.892 318.746 578.663 303.065 568.96C280.663 579.413 263.491 600.32 260.502 626.455L253.783 684.695C253.038 692.163 257.518 699.627 264.981 701.121C293.356 707.095 324.716 710.08 356.074 710.08C388.178 710.08 418.793 707.095 447.913 701.121C455.382 699.627 459.861 692.163 459.111 684.695L452.392 626.455C450.158 600.319 432.985 578.668 410.585 568.96Z" fill="white"/>
<path d="M424.771 479.36C424.771 516.475 394.689 546.563 357.574 546.563C320.459 546.563 290.371 516.475 290.371 479.36C290.371 442.245 320.459 412.163 357.574 412.163C394.689 412.163 424.771 442.245 424.771 479.36Z" fill="white"/>
<path d="M163.438 568.96C147.755 577.918 129.089 583.892 109.678 583.892C90.2661 583.892 71.5994 578.663 55.9181 568.96C33.5168 579.413 17.0901 600.32 13.3554 626.455L6.63662 684.695C5.89183 692.163 10.371 699.627 17.8345 701.121C46.2092 707.095 77.5692 710.08 108.928 710.08C140.288 710.08 171.646 707.095 200.766 701.121C208.235 699.627 212.714 692.163 211.964 684.695L205.246 626.455C203.011 600.319 185.838 578.668 163.438 568.96Z" fill="white"/>
<path d="M177.625 479.36C177.625 516.475 147.537 546.563 110.427 546.563C73.3127 546.563 43.2247 516.475 43.2247 479.36C43.2247 442.245 73.3127 412.163 110.427 412.163C147.537 412.163 177.625 442.245 177.625 479.36Z" fill="white"/>
<path d="M434.478 0H32.7714C14.85 0 0.667358 14.188 0.667358 32.104V274.771C0.667358 292.692 14.8554 306.875 32.7714 306.875H67.8647L94.0007 359.14C100.719 372.577 119.386 372.577 126.105 359.14L152.241 306.875H315.014L341.15 359.14C347.869 372.577 366.535 372.577 373.254 359.14L399.39 306.875H434.483C452.405 306.875 466.587 292.687 466.587 274.771V32.104C466.587 14.1867 451.655 0 434.483 0H434.478ZM214.958 237.44H77.5714C69.3578 237.44 61.8887 230.721 61.8887 221.757C61.8887 212.799 68.6075 206.075 77.5714 206.075H214.958C223.172 206.075 230.641 212.793 230.641 221.757C230.641 230.721 223.172 237.44 214.958 237.44ZM214.958 168.747H77.5714C69.3578 168.747 61.8887 162.028 61.8887 153.064C61.8887 144.85 68.6075 137.381 77.5714 137.381H214.958C223.172 137.381 230.641 144.1 230.641 153.064C230.641 162.028 223.172 168.747 214.958 168.747ZM214.958 100.804H77.5714C69.3578 100.804 61.8887 94.08 61.8887 85.1213C61.8887 76.1627 68.6075 69.4387 77.5714 69.4387H214.958C223.172 69.4387 230.641 76.1575 230.641 85.1213C230.641 94.0797 223.172 100.804 214.958 100.804ZM339.651 252.377C328.453 252.377 319.49 243.419 319.49 232.216C319.49 221.018 328.448 212.055 339.651 212.055C350.849 212.055 359.813 221.013 359.813 232.216C359.813 243.414 350.104 252.377 339.651 252.377ZM388.933 144.856C380.719 156.054 372.506 161.283 366.531 165.763C359.813 170.992 356.078 173.231 355.333 184.429C355.333 188.909 351.599 191.898 347.12 191.898H332.188C329.948 191.898 327.709 191.153 326.214 188.914C323.974 188.164 323.224 185.174 323.224 182.935C325.464 156.799 335.172 147.841 347.864 138.883C353.094 135.148 357.573 132.164 362.796 125.445C368.025 118.726 368.77 109.019 364.291 100.805C361.307 95.576 354.583 85.8732 337.411 85.8732C315.01 85.8732 308.291 99.3105 306.051 111.259C305.306 115.738 301.572 118.727 297.838 118.727H282.906C280.666 118.727 277.676 117.983 276.187 115.743C274.692 114.248 273.947 111.264 273.947 109.024C277.681 82.1441 296.348 54.5188 337.416 54.5188C362.056 54.5188 382.963 66.4667 393.416 86.6228C403.12 106.029 400.88 128.429 388.932 144.857L388.933 144.856Z" fill="white"/>
</svg>
